<?xml version="1.0" encoding="UTF-8" standalone="no"?>
<!-- Created with Inkscape (http://www.inkscape.org/) -->

<svg
   width="420mm"
   height="420mm"
   viewBox="0 0 420 420"
   version="1.1"
   id="svg5"
   xml:space="preserve"
   inkscape:version="1.2.2 (732a01da63, 2022-12-09)"
   sodipodi:docname="jemc_ambigram.svg"
   inkscape:export-filename="jemc_ambigram_comp_WHITE_10001000.png"
   inkscape:export-xdpi="63.500004"
   inkscape:export-ydpi="63.500004"
   xmlns:inkscape="http://www.inkscape.org/namespaces/inkscape"
   xmlns:sodipodi="http://sodipodi.sourceforge.net/DTD/sodipodi-0.dtd"
   xmlns="http://www.w3.org/2000/svg"
   xmlns:svg="http://www.w3.org/2000/svg"><sodipodi:namedview
     id="namedview7"
     pagecolor="#505050"
     bordercolor="#ffffff"
     borderopacity="1"
     inkscape:showpageshadow="0"
     inkscape:pageopacity="0"
     inkscape:pagecheckerboard="1"
     inkscape:deskcolor="#505050"
     inkscape:document-units="mm"
     showgrid="false"
     inkscape:zoom="0.17858464"
     inkscape:cx="-285.57887"
     inkscape:cy="923.93164"
     inkscape:window-width="1366"
     inkscape:window-height="705"
     inkscape:window-x="-8"
     inkscape:window-y="-8"
     inkscape:window-maximized="1"
     inkscape:current-layer="svg5" /><defs
     id="defs2" /><circle
     style="display:none;fill:#ffffff;fill-opacity:1;stroke:none;stroke-width:8.56436;stroke-linecap:round;stroke-miterlimit:70.7;stroke-opacity:0.0027397;paint-order:stroke fill markers"
     id="path1862"
     cx="210"
     cy="210"
     r="210" /><path
     id="path859"
     style="fill:none;stroke:#000000;stroke-width:15.7501;stroke-linecap:round;stroke-miterlimit:70.7;stroke-dasharray:none;paint-order:stroke fill markers"
     d="m 37.875062,112.87501 a 5.2497866,5.2498054 0 0 1 5.249794,-5.2498 5.2497866,5.2498054 0 0 1 5.249782,5.2498 5.2497866,5.2498054 0 0 1 -5.249782,5.2498 5.2497866,5.2498054 0 0 1 -5.249794,-5.2498 z m -9.000022,30.37758 a 39.023566,71.031111 0 0 1 44.648554,24.33059 39.023566,71.031111 0 0 1 0,84.83365 39.023566,71.031111 0 0 1 -44.648554,24.33059 M 154.7881,144.84116 a 70.132659,37.550075 0 0 1 -3.97963,30.47156 70.132659,37.550075 0 0 1 -44.95684,18.80599 m 46.54717,-51.03766 a 37.260109,70.678449 0 0 0 -47.12591,39.17871 37.260109,70.678449 0 0 0 18.43923,91.11886 37.260109,70.678449 0 0 0 48.8417,-30.70003 m 71.57121,-21.74337 a 37.260109,70.678449 0 0 1 -30.58148,59.00763 37.260109,70.678449 0 0 1 -39.15039,-36.49495 m 1.48182,-44.38311 a 37.260109,70.678449 0 0 1 30.58148,-59.00764 37.260109,70.678449 0 0 1 39.15039,36.49496 m 21.99436,100.36685 a 37.260109,70.678449 0 0 0 47.12592,-39.17872 37.260109,70.678449 0 0 0 -18.43923,-91.11885 37.260109,70.678449 0 0 0 -48.84172,30.70003 m 17.76573,97.83742 a 70.132659,37.550075 0 0 1 3.97963,-30.47155 70.132659,37.550075 0 0 1 44.95685,-18.80599 m 57.47667,81.24369 a 5.2497866,5.2498054 0 0 1 5.24979,-5.24981 5.2497866,5.2498054 0 0 1 5.24979,5.24981 5.2497866,5.2498054 0 0 1 -5.24979,5.2498 5.2497866,5.2498054 0 0 1 -5.24979,-5.2498 z m 19.49993,-30.37757 a 39.023566,71.031111 0 0 1 -44.64855,-24.33059 39.023566,71.031111 0 0 1 0,-84.83366 39.023566,71.031111 0 0 1 44.64855,-24.33058" /></svg>
