<?xml version="1.0" encoding="UTF-8" standalone="no"?>
<!-- Created with Inkscape (http://www.inkscape.org/) -->

<svg
   width="350mm"
   height="350mm"
   viewBox="0 0 350 350"
   version="1.1"
   id="svg5"
   xml:space="preserve"
   inkscape:version="1.2.2 (732a01da63, 2022-12-09)"
   sodipodi:docname="owl logo.svg"
   inkscape:export-filename="owl logo.png"
   inkscape:export-xdpi="96"
   inkscape:export-ydpi="96"
   xmlns:inkscape="http://www.inkscape.org/namespaces/inkscape"
   xmlns:sodipodi="http://sodipodi.sourceforge.net/DTD/sodipodi-0.dtd"
   xmlns="http://www.w3.org/2000/svg"
   xmlns:svg="http://www.w3.org/2000/svg"><sodipodi:namedview
     id="namedview7"
     pagecolor="#505050"
     bordercolor="#ffffff"
     borderopacity="1"
     inkscape:showpageshadow="0"
     inkscape:pageopacity="0"
     inkscape:pagecheckerboard="1"
     inkscape:deskcolor="#505050"
     inkscape:document-units="mm"
     showgrid="false"
     inkscape:zoom="0.20998198"
     inkscape:cx="907.22072"
     inkscape:cy="657.19926"
     inkscape:window-width="1366"
     inkscape:window-height="705"
     inkscape:window-x="-8"
     inkscape:window-y="-8"
     inkscape:window-maximized="1"
     inkscape:current-layer="layer1" /><defs
     id="defs2"><inkscape:path-effect
       effect="bspline"
       id="path-effect3506"
       is_visible="true"
       lpeversion="1"
       weight="33.333333"
       steps="2"
       helper_size="0"
       apply_no_weight="true"
       apply_with_weight="true"
       only_selected="false" /><inkscape:path-effect
       effect="bspline"
       id="path-effect3500"
       is_visible="true"
       lpeversion="1"
       weight="33.333333"
       steps="2"
       helper_size="0"
       apply_no_weight="true"
       apply_with_weight="true"
       only_selected="false" /><inkscape:path-effect
       effect="bspline"
       id="path-effect2436"
       is_visible="true"
       lpeversion="1"
       weight="33.333333"
       steps="2"
       helper_size="0"
       apply_no_weight="true"
       apply_with_weight="true"
       only_selected="false" /><inkscape:path-effect
       effect="bspline"
       id="path-effect2696"
       is_visible="true"
       lpeversion="1"
       weight="33.333333"
       steps="2"
       helper_size="0"
       apply_no_weight="true"
       apply_with_weight="true"
       only_selected="false" /><inkscape:path-effect
       effect="bspline"
       id="path-effect2688"
       is_visible="true"
       lpeversion="1"
       weight="33.333333"
       steps="2"
       helper_size="0"
       apply_no_weight="true"
       apply_with_weight="true"
       only_selected="false" /><inkscape:path-effect
       effect="bspline"
       id="path-effect2696-8"
       is_visible="true"
       lpeversion="1"
       weight="33.333333"
       steps="2"
       helper_size="0"
       apply_no_weight="true"
       apply_with_weight="true"
       only_selected="false" /><inkscape:path-effect
       effect="bspline"
       id="path-effect2696-8-5"
       is_visible="true"
       lpeversion="1"
       weight="33.333333"
       steps="2"
       helper_size="0"
       apply_no_weight="true"
       apply_with_weight="true"
       only_selected="false" /><inkscape:path-effect
       effect="bspline"
       id="path-effect2436-8"
       is_visible="true"
       lpeversion="1"
       weight="33.333333"
       steps="2"
       helper_size="0"
       apply_no_weight="true"
       apply_with_weight="true"
       only_selected="false" /><inkscape:path-effect
       effect="bspline"
       id="path-effect2436-1"
       is_visible="true"
       lpeversion="1"
       weight="33.333333"
       steps="2"
       helper_size="0"
       apply_no_weight="true"
       apply_with_weight="true"
       only_selected="false" /></defs><g
     inkscape:label="Capa 1"
     inkscape:groupmode="layer"
     id="layer1"
     transform="translate(117.68184,83.068634)"><g
       id="g1059"><path
         id="path3413"
         style="fill:#ffffff;stroke:#000000;stroke-width:4.99998;stroke-linecap:round;stroke-miterlimit:70.7;paint-order:stroke fill markers"
         d="M 229.81818,91.931366 A 172.50002,172.5 0 0 1 57.318161,264.43137 172.50002,172.5 0 0 1 -115.18185,91.931366 a 172.50002,172.5 0 0 1 172.500011,-172.5 172.50002,172.5 0 0 1 172.500019,172.5 z" /><path
         id="path3502"
         style="display:inline;fill:#ffffff;fill-opacity:1;stroke:#000000;stroke-width:5;stroke-linecap:round;stroke-miterlimit:70.7;stroke-dasharray:none;stroke-opacity:1;paint-order:stroke fill markers"
         d="m 194.39516,89.780366 c 2.02568,32.710534 4.05135,65.420784 6.077,98.130764 M -79.75927,89.780366 c -2.025683,32.710534 -4.051348,65.420784 -6.076996,98.130764" /><path
         id="path4506"
         style="display:inline;fill:none;stroke:#000000;stroke-width:4.99994;stroke-linecap:round;stroke-miterlimit:70.7;stroke-dasharray:none;paint-order:stroke fill markers"
         d="M 194.81819,91.931364 A 137.50003,132.50004 0 0 1 57.318158,224.4314 137.50003,132.50004 0 0 1 -80.18187,91.931364 137.50003,132.50004 0 0 1 57.318158,-40.568668 137.50003,132.50004 0 0 1 194.81819,91.931364 Z M 169.13712,89.100321 C 169.9913,65.310743 164.27891,41.521761 144.00663,25.171244 123.73434,8.8207168 57.318158,35.696338 57.318158,35.696338 c 0,0 -66.4161722,-26.8756212 -86.68846,-10.525094 -20.272288,16.350527 -25.984676,40.139499 -25.130491,63.929077 2.052822,57.173509 50.2123973,113.115889 111.818961,113.115889 61.606562,0 109.766122,-55.94238 111.818952,-113.115889 z M 92.696514,80.840955 c 5.051946,-9.445668 17.297656,-11.928526 24.600896,-8.558789 7.30324,3.369737 8.61397,12.355492 5.1772,18.781234 -5.05196,9.44566 -17.29764,11.92851 -24.600904,8.55879 -7.303244,-3.369736 -8.613959,-12.355483 -5.177192,-18.781235 z m -70.756702,0 C 16.887856,71.395297 4.642164,68.912439 -2.6610904,72.282166 -9.9643349,75.651903 -11.27505,84.637658 -7.8382825,91.06341 c 5.0519461,9.44566 17.2976478,11.92851 24.6008925,8.55878 7.303255,-3.369735 8.613969,-12.355483 5.177202,-18.781235 z m 68.781413,10.445875 2.429974,6.141653 -8.045754,14.379857 9.508435,-13.261773 3.982867,2.494123 c -12.986516,13.9988 -41.278579,41.99538 -41.278579,41.99538 0,0 -28.292073,-27.99658 -41.278589,-41.99538 l 3.982857,-2.494123 9.508445,13.261773 -8.045754,-14.379857 2.429974,-6.141653 33.403067,85.30551 z" /><ellipse
         style="fill:none;stroke:#000000;stroke-width:16.3237;stroke-linecap:round;stroke-miterlimit:70.7;stroke-dasharray:none;paint-order:stroke fill markers"
         id="path937-4"
         cx="854.17584"
         cy="291.25803"
         rx="7.3691936"
         ry="9.0397711"
         transform="matrix(-0.54261356,-0.83998244,-0.83998244,0.54261356,816.50193,645.43475)" /><ellipse
         style="fill:none;stroke:#000000;stroke-width:16.3237;stroke-linecap:round;stroke-miterlimit:70.7;stroke-dasharray:none;paint-order:stroke fill markers"
         id="path937"
         cx="-68.819801"
         cy="51.924946"
         rx="7.3691936"
         ry="9.0397711"
         transform="rotate(-57.138266)" /></g></g></svg>
